<svg width="395" height="137" viewBox="0 0 395 137" fill="none" xmlns="http://www.w3.org/2000/svg">
<path d="M215.557 9L213.113 2.36938H213.981L215.957 8.00747H215.976L217.951 2.36938H218.82L216.375 9H215.557ZM221.262 9.0919C219.934 9.0919 219.047 8.13154 219.047 6.61059V6.6014C219.047 5.08044 219.938 4.12928 221.257 4.12928C222.576 4.12928 223.472 5.07585 223.472 6.6014V6.61059C223.472 8.13614 222.581 9.0919 221.262 9.0919ZM221.266 8.38427C222.107 8.38427 222.654 7.73177 222.654 6.61059V6.6014C222.654 5.48021 222.103 4.83691 221.257 4.83691C220.425 4.83691 219.865 5.48481 219.865 6.6014V6.61059C219.865 7.73637 220.421 8.38427 221.266 8.38427ZM226.382 9.0919C225.335 9.0919 224.728 8.41184 224.728 7.32282V4.22118H225.528V7.18037C225.528 7.95693 225.891 8.38427 226.626 8.38427C227.38 8.38427 227.871 7.84665 227.871 7.03333V4.22118H228.671V9H227.871V8.31994H227.853C227.596 8.76565 227.108 9.0919 226.382 9.0919ZM231.88 9.0919C230.754 9.0919 230.074 8.51752 229.978 7.66285L229.973 7.62149H230.773L230.782 7.66744C230.878 8.14533 231.232 8.42562 231.885 8.42562C232.532 8.42562 232.918 8.15452 232.918 7.72258V7.71799C232.918 7.37336 232.739 7.18037 232.197 7.04711L231.439 6.86331C230.538 6.64735 230.102 6.2292 230.102 5.53995V5.53535C230.102 4.71284 230.823 4.12928 231.857 4.12928C232.905 4.12928 233.571 4.74041 233.631 5.53995L233.635 5.59968H232.872L232.868 5.56752C232.804 5.10342 232.45 4.79555 231.857 4.79555C231.278 4.79555 230.92 5.07585 230.92 5.49859V5.50319C230.92 5.82943 231.136 6.05459 231.664 6.18325L232.422 6.36705C233.387 6.6014 233.736 6.98278 233.736 7.66285V7.66744C233.736 8.50374 232.946 9.0919 231.88 9.0919Z" fill="#8E8D94"/>
<path d="M202 24.0081C202 17.8363 207.003 12.833 213.175 12.833V29.0075H202V24.0081Z" fill="#278EFF" stroke="#278EFF" stroke-width="0.458232"/>
<rect x="202" y="29.0073" width="11.1751" height="18.1474" fill="#278EFF" stroke="#278EFF" stroke-width="0.458232"/>
<path d="M202 52.1542C202 58.3261 207.003 63.3293 213.175 63.3293V47.1549H202V52.1542Z" fill="#278EFF" stroke="#278EFF" stroke-width="0.458232"/>
<rect x="213.176" y="12.833" width="164.945" height="50.4964" fill="#278EFF"/>
<rect x="213.176" y="12.833" width="164.945" height="50.4964" stroke="#278EFF" stroke-width="0.458232"/>
<path d="M214.241 35.0813V24.0993H218.404C220.284 24.0993 221.555 25.1952 221.555 26.8391V26.8543C221.555 27.9883 220.703 29.0918 219.569 29.2516V29.2821C221.152 29.4647 222.111 30.5302 222.111 31.9838V31.999C222.111 33.9321 220.725 35.0813 218.389 35.0813H214.241ZM218.092 25.3094H215.611V28.8331H217.666C219.287 28.8331 220.17 28.1862 220.17 26.9989V26.9837C220.17 25.903 219.416 25.3094 218.092 25.3094ZM218.054 30.0127H215.611V33.8712H218.183C219.827 33.8712 220.703 33.2091 220.703 31.9458V31.9305C220.703 30.6596 219.805 30.0127 218.054 30.0127ZM226.66 35.2335C224.46 35.2335 222.992 33.6429 222.992 31.1238V31.1086C222.992 28.5895 224.468 27.0142 226.652 27.0142C228.836 27.0142 230.32 28.5819 230.32 31.1086V31.1238C230.32 33.6505 228.844 35.2335 226.66 35.2335ZM226.667 34.0615C228.06 34.0615 228.966 32.9808 228.966 31.1238V31.1086C228.966 29.2516 228.052 28.1862 226.652 28.1862C225.275 28.1862 224.346 29.2593 224.346 31.1086V31.1238C224.346 32.9884 225.267 34.0615 226.667 34.0615ZM231.582 35.0813V27.1664H232.906V28.2927H232.937C233.363 27.5545 234.17 27.0142 235.372 27.0142C237.107 27.0142 238.112 28.1405 238.112 29.9442V35.0813H236.788V30.1801C236.788 28.894 236.186 28.1862 234.969 28.1862C233.72 28.1862 232.906 29.0766 232.906 30.4237V35.0813H231.582ZM240.454 25.8269C239.997 25.8269 239.624 25.454 239.624 24.9974C239.624 24.5331 239.997 24.1678 240.454 24.1678C240.918 24.1678 241.284 24.5331 241.284 24.9974C241.284 25.454 240.918 25.8269 240.454 25.8269ZM238.666 37.7526C238.582 37.7526 238.498 37.7526 238.414 37.745V36.5806H238.62C239.48 36.5806 239.792 36.3142 239.792 35.4314V27.1664H241.116V35.4162C241.116 37.022 240.355 37.7526 238.666 37.7526ZM246.122 35.2335C243.923 35.2335 242.454 33.6429 242.454 31.1238V31.1086C242.454 28.5895 243.93 27.0142 246.114 27.0142C248.299 27.0142 249.783 28.5819 249.783 31.1086V31.1238C249.783 33.6505 248.306 35.2335 246.122 35.2335ZM246.13 34.0615C247.522 34.0615 248.428 32.9808 248.428 31.1238V31.1086C248.428 29.2516 247.515 28.1862 246.114 28.1862C244.737 28.1862 243.808 29.2593 243.808 31.1086V31.1238C243.808 32.9884 244.729 34.0615 246.13 34.0615ZM253.746 35.2335C252.011 35.2335 251.006 34.1072 251.006 32.3035V27.1664H252.33V32.0675C252.33 33.3537 252.932 34.0615 254.149 34.0615C255.397 34.0615 256.212 33.1711 256.212 31.824V27.1664H257.536V35.0813H256.212V33.9549H256.181C255.755 34.6932 254.948 35.2335 253.746 35.2335ZM259.186 35.0813V27.1664H260.51V28.5058H260.54C260.807 27.5926 261.492 27.0142 262.382 27.0142C262.61 27.0142 262.808 27.0522 262.915 27.0674V28.3536C262.808 28.3156 262.527 28.2775 262.207 28.2775C261.18 28.2775 260.51 28.9929 260.51 30.1954V35.0813H259.186ZM262.624 37.2351L263.293 33.5135H264.679L263.567 37.2351H262.624ZM269.515 25.8269C269.059 25.8269 268.686 25.454 268.686 24.9974C268.686 24.5331 269.059 24.1678 269.515 24.1678C269.979 24.1678 270.345 24.5331 270.345 24.9974C270.345 25.454 269.979 25.8269 269.515 25.8269ZM267.727 37.7526C267.643 37.7526 267.559 37.7526 267.476 37.745V36.5806H267.681C268.541 36.5806 268.853 36.3142 268.853 35.4314V27.1664H270.177V35.4162C270.177 37.022 269.416 37.7526 267.727 37.7526ZM271.69 27.8209L272.36 24.0993H273.745L272.634 27.8209H271.69ZM276.346 35.2335C274.77 35.2335 273.712 34.2822 273.712 32.8438V32.8286C273.712 31.4815 274.763 30.6368 276.582 30.5302L278.85 30.4008V29.7387C278.85 28.7722 278.218 28.1862 277.114 28.1862C276.095 28.1862 275.455 28.6733 275.303 29.381L275.288 29.4495H274.009L274.017 29.3658C274.131 28.0644 275.265 27.0142 277.13 27.0142C279.002 27.0142 280.174 28.0264 280.174 29.6093V35.0813H278.85V33.7951H278.819C278.355 34.6627 277.404 35.2335 276.346 35.2335ZM275.067 32.8438C275.067 33.6049 275.691 34.0843 276.643 34.0843C277.891 34.0843 278.85 33.2243 278.85 32.0751V31.4283L276.734 31.5576C275.676 31.6185 275.067 32.0904 275.067 32.8286V32.8438ZM282.524 25.8269C282.067 25.8269 281.694 25.454 281.694 24.9974C281.694 24.5331 282.067 24.1678 282.524 24.1678C282.988 24.1678 283.353 24.5331 283.353 24.9974C283.353 25.454 282.988 25.8269 282.524 25.8269ZM281.862 35.0813V27.1664H283.186V35.0813H281.862ZM291.965 35.2335C290.831 35.2335 289.948 34.6627 289.453 33.7418H289.423V35.0813H288.098V24.0993H289.423V28.4906H289.453C289.948 27.5773 290.869 27.0142 291.987 27.0142C293.974 27.0142 295.328 28.62 295.328 31.1162V31.1238C295.328 33.6201 293.989 35.2335 291.965 35.2335ZM291.706 34.0615C293.106 34.0615 293.974 32.9427 293.974 31.1238V31.1162C293.974 29.3125 293.106 28.1862 291.706 28.1862C290.374 28.1862 289.415 29.3506 289.415 31.1162V31.1238C289.415 32.8971 290.366 34.0615 291.706 34.0615ZM299.84 35.2335C297.564 35.2335 296.194 33.6429 296.194 31.1543V31.1467C296.194 28.6961 297.595 27.0142 299.756 27.0142C301.917 27.0142 303.234 28.62 303.234 30.9945V31.4815H297.534C297.564 33.1102 298.462 34.0615 299.87 34.0615C300.875 34.0615 301.582 33.5592 301.811 32.8819L301.834 32.8134H303.135L303.12 32.8895C302.861 34.1985 301.567 35.2335 299.84 35.2335ZM299.748 28.1862C298.599 28.1862 297.701 28.9701 297.557 30.4465H301.887C301.758 28.9092 300.905 28.1862 299.748 28.1862ZM307.304 35.2335C305.439 35.2335 304.313 34.2822 304.153 32.8666L304.145 32.7981H305.47L305.485 32.8743C305.645 33.6657 306.231 34.13 307.311 34.13C308.384 34.13 309.024 33.681 309.024 32.9656V32.958C309.024 32.3872 308.727 32.0675 307.829 31.8468L306.573 31.5424C305.081 31.1847 304.358 30.4922 304.358 29.3506V29.343C304.358 27.9807 305.553 27.0142 307.266 27.0142C309.001 27.0142 310.104 28.0264 310.203 29.3506L310.211 29.4495H308.948L308.94 29.3962C308.833 28.6276 308.247 28.1177 307.266 28.1177C306.307 28.1177 305.713 28.5819 305.713 29.2821V29.2897C305.713 29.83 306.071 30.203 306.946 30.4161L308.202 30.7205C309.8 31.1086 310.378 31.7403 310.378 32.8666V32.8743C310.378 34.2594 309.069 35.2335 307.304 35.2335ZM314.958 35.2335C312.759 35.2335 311.29 33.6429 311.29 31.1238V31.1086C311.29 28.5895 312.766 27.0142 314.95 27.0142C317.135 27.0142 318.619 28.5819 318.619 31.1086V31.1238C318.619 33.6505 317.142 35.2335 314.958 35.2335ZM314.966 34.0615C316.358 34.0615 317.264 32.9808 317.264 31.1238V31.1086C317.264 29.2516 316.351 28.1862 314.95 28.1862C313.573 28.1862 312.645 29.2593 312.645 31.1086V31.1238C312.645 32.9884 313.565 34.0615 314.966 34.0615ZM320.626 25.8269C320.169 25.8269 319.797 25.454 319.797 24.9974C319.797 24.5331 320.169 24.1678 320.626 24.1678C321.09 24.1678 321.456 24.5331 321.456 24.9974C321.456 25.454 321.09 25.8269 320.626 25.8269ZM319.964 35.0813V27.1664H321.288V35.0813H319.964ZM323.014 35.0813V27.1664H324.338V28.2927H324.369C324.795 27.5545 325.602 27.0142 326.804 27.0142C328.539 27.0142 329.544 28.1405 329.544 29.9442V35.0813H328.22V30.1801C328.22 28.894 327.618 28.1862 326.401 28.1862C325.153 28.1862 324.338 29.0766 324.338 30.4237V35.0813H323.014ZM337.25 35.2335C335.225 35.2335 333.886 33.6201 333.886 31.1238V31.1162C333.886 28.62 335.24 27.0142 337.227 27.0142C338.345 27.0142 339.266 27.5773 339.761 28.4906H339.791V24.0993H341.116V35.0813H339.791V33.7418H339.761C339.266 34.6627 338.384 35.2335 337.25 35.2335ZM337.508 34.0615C338.848 34.0615 339.799 32.8971 339.799 31.1238V31.1162C339.799 29.3506 338.84 28.1862 337.508 28.1862C336.108 28.1862 335.24 29.3125 335.24 31.1162V31.1238C335.24 32.9427 336.108 34.0615 337.508 34.0615ZM342.613 27.8209L343.283 24.0993H344.668L343.557 27.8209H342.613ZM347.269 35.2335C345.694 35.2335 344.636 34.2822 344.636 32.8438V32.8286C344.636 31.4815 345.686 30.6368 347.505 30.5302L349.773 30.4008V29.7387C349.773 28.7722 349.141 28.1862 348.038 28.1862C347.018 28.1862 346.379 28.6733 346.226 29.381L346.211 29.4495H344.933L344.94 29.3658C345.054 28.0644 346.188 27.0142 348.053 27.0142C349.925 27.0142 351.097 28.0264 351.097 29.6093V35.0813H349.773V33.7951H349.742C349.278 34.6627 348.327 35.2335 347.269 35.2335ZM345.99 32.8438C345.99 33.6049 346.614 34.0843 347.566 34.0843C348.814 34.0843 349.773 33.2243 349.773 32.0751V31.4283L347.657 31.5576C346.599 31.6185 345.99 32.0904 345.99 32.8286V32.8438ZM353.447 25.8269C352.99 25.8269 352.617 25.454 352.617 24.9974C352.617 24.5331 352.99 24.1678 353.447 24.1678C353.911 24.1678 354.276 24.5331 354.276 24.9974C354.276 25.454 353.911 25.8269 353.447 25.8269ZM352.785 35.0813V27.1664H354.109V35.0813H352.785ZM358.81 35.2335C356.786 35.2335 355.447 33.6201 355.447 31.1238V31.1162C355.447 28.62 356.801 27.0142 358.788 27.0142C359.906 27.0142 360.827 27.5773 361.322 28.4906H361.352V24.0993H362.677V35.0813H361.352V33.7418H361.322C360.827 34.6627 359.944 35.2335 358.81 35.2335ZM359.069 34.0615C360.409 34.0615 361.36 32.8971 361.36 31.1238V31.1162C361.36 29.3506 360.401 28.1862 359.069 28.1862C357.669 28.1862 356.801 29.3125 356.801 31.1162V31.1238C356.801 32.9427 357.669 34.0615 359.069 34.0615ZM367.644 35.2335C365.369 35.2335 363.999 33.6429 363.999 31.1543V31.1467C363.999 28.6961 365.399 27.0142 367.561 27.0142C369.722 27.0142 371.039 28.62 371.039 30.9945V31.4815H365.338C365.369 33.1102 366.267 34.0615 367.675 34.0615C368.679 34.0615 369.387 33.5592 369.616 32.8819L369.638 32.8134H370.94L370.925 32.8895C370.666 34.1985 369.372 35.2335 367.644 35.2335ZM367.553 28.1862C366.404 28.1862 365.506 28.9701 365.361 30.4465H369.692C369.562 28.9092 368.71 28.1862 367.553 28.1862ZM217.316 52.2335C215.071 52.2335 213.648 50.6353 213.648 48.1162V48.1086C213.648 45.6124 215.101 44.0142 217.301 44.0142C219.272 44.0142 220.436 45.3232 220.604 46.6778L220.611 46.7387H219.317L219.302 46.6778C219.104 45.8863 218.465 45.1862 217.301 45.1862C215.923 45.1862 215.002 46.3278 215.002 48.1238V48.1314C215.002 49.9732 215.946 51.0615 217.316 51.0615C218.397 51.0615 219.089 50.4527 219.31 49.5698L219.325 49.5089H220.626L220.619 49.5622C220.406 51.0691 219.104 52.2335 217.316 52.2335ZM225.046 52.2335C222.847 52.2335 221.378 50.6429 221.378 48.1238V48.1086C221.378 45.5895 222.855 44.0142 225.039 44.0142C227.223 44.0142 228.707 45.5819 228.707 48.1086V48.1238C228.707 50.6505 227.231 52.2335 225.046 52.2335ZM225.054 51.0615C226.447 51.0615 227.352 49.9808 227.352 48.1238V48.1086C227.352 46.2516 226.439 45.1862 225.039 45.1862C223.661 45.1862 222.733 46.2593 222.733 48.1086V48.1238C222.733 49.9884 223.654 51.0615 225.054 51.0615ZM229.969 52.0813V44.1664H231.293V45.2927H231.323C231.749 44.5545 232.556 44.0142 233.759 44.0142C235.494 44.0142 236.498 45.1405 236.498 46.9442V52.0813H235.174V47.1801C235.174 45.894 234.573 45.1862 233.355 45.1862C232.107 45.1862 231.293 46.0766 231.293 47.4237V52.0813H229.969ZM241.39 52.2335C239.145 52.2335 237.722 50.6353 237.722 48.1162V48.1086C237.722 45.6124 239.175 44.0142 241.375 44.0142C243.346 44.0142 244.51 45.3232 244.678 46.6778L244.685 46.7387H243.392L243.376 46.6778C243.179 45.8863 242.539 45.1862 241.375 45.1862C239.997 45.1862 239.076 46.3278 239.076 48.1238V48.1314C239.076 49.9732 240.02 51.0615 241.39 51.0615C242.471 51.0615 243.163 50.4527 243.384 49.5698L243.399 49.5089H244.701L244.693 49.5622C244.48 51.0691 243.179 52.2335 241.39 52.2335ZM249.098 52.2335C246.822 52.2335 245.452 50.6429 245.452 48.1543V48.1467C245.452 45.6961 246.853 44.0142 249.014 44.0142C251.175 44.0142 252.492 45.62 252.492 47.9945V48.4815H246.792C246.822 50.1102 247.72 51.0615 249.128 51.0615C250.133 51.0615 250.84 50.5592 251.069 49.8819L251.092 49.8134H252.393L252.378 49.8895C252.119 51.1985 250.825 52.2335 249.098 52.2335ZM249.006 45.1862C247.857 45.1862 246.959 45.9701 246.815 47.4465H251.145C251.016 45.9092 250.163 45.1862 249.006 45.1862ZM253.753 52.0813V44.1664H255.078V45.5058H255.108C255.375 44.5926 256.059 44.0142 256.95 44.0142C257.178 44.0142 257.376 44.0522 257.483 44.0674V45.3536C257.376 45.3156 257.094 45.2775 256.775 45.2775C255.747 45.2775 255.078 45.9929 255.078 47.1954V52.0813H253.753ZM258.485 52.0813V44.1664H259.81V45.2927H259.84C260.266 44.5545 261.073 44.0142 262.275 44.0142C264.011 44.0142 265.015 45.1405 265.015 46.9442V52.0813H263.691V47.1801C263.691 45.894 263.09 45.1862 261.872 45.1862C260.624 45.1862 259.81 46.0766 259.81 47.4237V52.0813H258.485ZM268.94 52.2335C267.365 52.2335 266.307 51.2822 266.307 49.8438V49.8286C266.307 48.4815 267.357 47.6368 269.176 47.5302L271.444 47.4008V46.7387C271.444 45.7722 270.813 45.1862 269.709 45.1862C268.689 45.1862 268.05 45.6733 267.898 46.381L267.883 46.4495H266.604L266.612 46.3658C266.726 45.0644 267.86 44.0142 269.724 44.0142C271.596 44.0142 272.768 45.0264 272.768 46.6093V52.0813H271.444V50.7951H271.414C270.95 51.6627 269.998 52.2335 268.94 52.2335ZM267.662 49.8438C267.662 50.6049 268.286 51.0843 269.237 51.0843C270.485 51.0843 271.444 50.2243 271.444 49.0751V48.4283L269.329 48.5576C268.271 48.6185 267.662 49.0904 267.662 49.8286V49.8438ZM274.372 52.0813V44.1664H275.697V45.2927H275.727C276.153 44.5545 276.96 44.0142 278.163 44.0142C279.898 44.0142 280.902 45.1405 280.902 46.9442V52.0813H279.578V47.1801C279.578 45.894 278.977 45.1862 277.759 45.1862C276.511 45.1862 275.697 46.0766 275.697 47.4237V52.0813H274.372ZM285.086 52.2335C283.633 52.2335 282.917 51.579 282.917 50.0645V45.2623H281.76V44.1664H282.917V42.0278H284.287V44.1664H285.794V45.2623H284.287V50.0569C284.287 50.9017 284.66 51.1376 285.368 51.1376C285.528 51.1376 285.68 51.1148 285.794 51.1072V52.1802C285.627 52.2031 285.345 52.2335 285.086 52.2335ZM292.959 52.2335C291.224 52.2335 290.22 51.1072 290.22 49.3035V44.1664H291.544V49.0675C291.544 50.3537 292.145 51.0615 293.363 51.0615C294.611 51.0615 295.425 50.1711 295.425 48.824V44.1664H296.75V52.0813H295.425V50.9549H295.395C294.969 51.6932 294.162 52.2335 292.959 52.2335ZM298.399 52.0813V44.1664H299.723V45.2927H299.754C300.18 44.5545 300.987 44.0142 302.189 44.0142C303.924 44.0142 304.929 45.1405 304.929 46.9442V52.0813H303.605V47.1801C303.605 45.894 303.004 45.1862 301.786 45.1862C300.538 45.1862 299.723 46.0766 299.723 47.4237V52.0813H298.399ZM311.889 52.0813L308.974 44.1664H310.367L312.551 50.6734H312.581L314.773 44.1664H316.151L313.244 52.0813H311.889ZM320.396 43.2607H319.376L320.677 40.9776H322.062L320.396 43.2607ZM320.068 52.2335C317.793 52.2335 316.423 50.6429 316.423 48.1543V48.1467C316.423 45.6961 317.823 44.0142 319.985 44.0142C322.146 44.0142 323.463 45.62 323.463 47.9945V48.4815H317.762C317.793 50.1102 318.691 51.0615 320.099 51.0615C321.103 51.0615 321.811 50.5592 322.04 49.8819L322.062 49.8134H323.364L323.349 49.8895C323.09 51.1985 321.796 52.2335 320.068 52.2335ZM319.977 45.1862C318.828 45.1862 317.93 45.9701 317.785 47.4465H322.116C321.986 45.9092 321.134 45.1862 319.977 45.1862ZM324.793 52.0813V41.0993H326.117V45.4297H326.147C326.574 44.5393 327.434 44.0142 328.613 44.0142C330.295 44.0142 331.444 45.3156 331.444 47.2334V52.0813H330.12V47.4617C330.12 46.0309 329.389 45.1862 328.157 45.1862C326.931 45.1862 326.117 46.1147 326.117 47.4617V52.0813H324.793ZM333.794 42.8269C333.337 42.8269 332.965 42.454 332.965 41.9974C332.965 41.5331 333.337 41.1678 333.794 41.1678C334.258 41.1678 334.624 41.5331 334.624 41.9974C334.624 42.454 334.258 42.8269 333.794 42.8269ZM333.132 52.0813V44.1664H334.456V52.0813H333.132ZM339.462 52.2335C337.217 52.2335 335.794 50.6353 335.794 48.1162V48.1086C335.794 45.6124 337.247 44.0142 339.447 44.0142C341.418 44.0142 342.582 45.3232 342.75 46.6778L342.757 46.7387H341.464L341.448 46.6778C341.251 45.8863 340.611 45.1862 339.447 45.1862C338.069 45.1862 337.149 46.3278 337.149 48.1238V48.1314C337.149 49.9732 338.092 51.0615 339.462 51.0615C340.543 51.0615 341.235 50.4527 341.456 49.5698L341.471 49.5089H342.773L342.765 49.5622C342.552 51.0691 341.251 52.2335 339.462 52.2335ZM346.614 52.2335C344.879 52.2335 343.874 51.1072 343.874 49.3035V44.1664H345.199V49.0675C345.199 50.3537 345.8 51.0615 347.018 51.0615C348.266 51.0615 349.08 50.1711 349.08 48.824V44.1664H350.404V52.0813H349.08V50.9549H349.05C348.623 51.6932 347.817 52.2335 346.614 52.2335ZM352.122 52.0813V41.0993H353.447V52.0813H352.122ZM358.414 52.2335C356.139 52.2335 354.769 50.6429 354.769 48.1543V48.1467C354.769 45.6961 356.169 44.0142 358.331 44.0142C360.492 44.0142 361.809 45.62 361.809 47.9945V48.4815H356.108C356.139 50.1102 357.037 51.0615 358.445 51.0615C359.449 51.0615 360.157 50.5592 360.386 49.8819L360.408 49.8134H361.71L361.695 49.8895C361.436 51.1985 360.142 52.2335 358.414 52.2335ZM358.323 45.1862C357.174 45.1862 356.276 45.9701 356.131 47.4465H360.462C360.332 45.9092 359.48 45.1862 358.323 45.1862ZM363.885 52.1878C363.397 52.1878 363.017 51.8073 363.017 51.3202C363.017 50.8332 363.397 50.4527 363.885 50.4527C364.372 50.4527 364.752 50.8332 364.752 51.3202C364.752 51.8073 364.372 52.1878 363.885 52.1878Z" fill="white"/>
<path d="M389.295 24.0081C389.295 17.8363 384.292 12.833 378.12 12.833V29.0075H389.295V24.0081Z" fill="#278EFF" stroke="#278EFF" stroke-width="0.458232"/>
<rect width="11.1751" height="18.1471" transform="matrix(-1 0 0 1 389.295 29.0073)" fill="#278EFF" stroke="#278EFF" stroke-width="0.458232"/>
<path d="M378.12 47.1545V63.3293C380.827 63.3293 383.309 62.3669 385.242 60.7659C387.171 62.0508 390.263 63.2733 394 62.594C392.97 62.1526 389.001 59.5052 389.148 54.2122C389.13 54.2369 389.11 54.2608 389.091 54.2844C389.224 53.5947 389.295 52.8822 389.295 52.1536V47.1545H378.12Z" fill="#278EFF"/>
<path d="M378.12 47.1545H377.891V46.9254H378.12V47.1545ZM378.12 63.3293L378.12 63.5585L377.891 63.5585V63.3293H378.12ZM385.242 60.7659L385.096 60.5894L385.227 60.4807L385.369 60.5752L385.242 60.7659ZM394 62.594L394.09 62.3834L394.79 62.6833L394.041 62.8194L394 62.594ZM389.148 54.2122L388.963 54.0774L389.398 53.4795L389.377 54.2185L389.148 54.2122ZM389.091 54.2844L389.267 54.4304L388.866 54.241L389.091 54.2844ZM389.295 47.1545V46.9254H389.524V47.1545H389.295ZM378.12 47.1545H378.349V63.3293H378.12H377.891V47.1545H378.12ZM378.12 63.3293L378.12 63.1002C380.771 63.1002 383.202 62.1577 385.096 60.5894L385.242 60.7659L385.388 60.9423C383.415 62.5761 380.882 63.5584 378.12 63.5585L378.12 63.3293ZM385.242 60.7659L385.369 60.5752C387.263 61.8366 390.295 63.0346 393.959 62.3686L394 62.594L394.041 62.8194C390.231 63.512 387.08 62.2651 385.115 60.9566L385.242 60.7659ZM394 62.594L393.91 62.8046C393.36 62.5688 392.08 61.7732 390.954 60.3655C389.824 58.9522 388.844 56.9155 388.919 54.2058L389.148 54.2122L389.377 54.2185C389.306 56.8018 390.237 58.7354 391.312 60.0793C392.391 61.4289 393.611 62.1778 394.09 62.3834L394 62.594ZM389.148 54.2122L389.334 54.3469C389.311 54.3788 389.285 54.4093 389.267 54.4304L389.091 54.2844L388.914 54.1384C388.936 54.1124 388.95 54.095 388.963 54.0774L389.148 54.2122ZM389.091 54.2844L388.866 54.241C388.996 53.5653 389.066 52.8673 389.066 52.1536H389.295H389.524C389.524 52.8971 389.452 53.6241 389.316 54.3279L389.091 54.2844ZM389.295 52.1536H389.066V47.1545H389.295H389.524V52.1536H389.295ZM389.295 47.1545V47.3837H378.12V47.1545V46.9254H389.295V47.1545Z" fill="#278EFF"/>
<path d="M17.5223 80V73.2473H19.7919C21.7901 73.2473 22.9788 74.4921 22.9788 76.612V76.6213C22.9788 78.7505 21.7995 80 19.7919 80H17.5223ZM18.3647 79.2419H19.7358C21.266 79.2419 22.1177 78.306 22.1177 76.6307V76.6213C22.1177 74.9367 21.266 74.0054 19.7358 74.0054H18.3647V79.2419ZM24.5062 80V73.2473H27.0378C28.3388 73.2473 29.1905 74.0429 29.1905 75.2596V75.2689C29.1905 76.2048 28.6757 76.9302 27.8334 77.1969L29.3964 80H28.409L26.963 77.3279H25.3485V80H24.5062ZM25.3485 76.5839H26.963C27.8287 76.5839 28.3201 76.1159 28.3201 75.2876V75.2783C28.3201 74.4734 27.7913 73.9961 26.9255 73.9961H25.3485V76.5839ZM30.7319 80V73.2473H31.5742V80H30.7319ZM35.3151 80L32.8256 73.2473H33.71L35.7223 78.9892H35.741L37.7532 73.2473H38.6376L36.1481 80H35.3151ZM39.889 80V73.2473H44.0725V74.0054H40.7313V76.1721H43.8994V76.9208H40.7313V79.2419H44.0725V80H39.889Z" fill="#8E8D94"/>
<path d="M5.79297 96.1809C5.79297 89.8954 10.8883 84.8 17.1738 84.8V101.272H5.79297V96.1809Z" fill="#26252A" stroke="#26252A" stroke-width="0.466667"/>
<rect x="5.79297" y="101.272" width="11.3808" height="17.8551" fill="#26252A" stroke="#26252A" stroke-width="0.466667"/>
<path d="M17.1729 119.127V135.6C14.4167 135.6 11.8901 134.619 9.9209 132.989C7.95643 134.298 4.80638 135.543 1 134.851C2.04823 134.402 6.09115 131.706 5.94141 126.315C5.95982 126.34 5.98098 126.364 6.00098 126.388C5.86541 125.686 5.79202 124.961 5.79199 124.219V119.127H17.1729Z" fill="#26252A"/>
<path d="M17.1729 119.127H17.4062V118.894H17.1729V119.127ZM17.1729 135.6V135.833H17.4062V135.6H17.1729ZM9.9209 132.989L10.0697 132.809L9.93597 132.698L9.79152 132.795L9.9209 132.989ZM1 134.851L0.908085 134.637L0.195567 134.942L0.95826 135.081L1 134.851ZM5.94141 126.315L6.13011 126.178L5.68726 125.569L5.70816 126.321L5.94141 126.315ZM6.00098 126.388L5.82122 126.537L6.23008 126.344L6.00098 126.388ZM5.79199 124.219H5.55866V124.219L5.79199 124.219ZM5.79199 119.127V118.894H5.55866V119.127H5.79199ZM17.1729 119.127H16.9395V135.6H17.1729H17.4062V119.127H17.1729ZM17.1729 135.6V135.367C14.4731 135.367 11.9987 134.406 10.0697 132.809L9.9209 132.989L9.77211 133.169C11.7815 134.832 14.3603 135.833 17.1729 135.833V135.6ZM9.9209 132.989L9.79152 132.795C7.86315 134.079 4.77374 135.3 1.04174 134.622L1 134.851L0.95826 135.081C4.83901 135.786 8.04972 134.516 10.0503 133.183L9.9209 132.989ZM1 134.851L1.09191 135.066C1.65179 134.826 2.95545 134.015 4.10216 132.582C5.25345 131.143 6.25131 129.068 6.17465 126.308L5.94141 126.315L5.70816 126.321C5.78125 128.952 4.83252 130.922 3.73773 132.29C2.63836 133.665 1.39644 134.427 0.908085 134.637L1 134.851ZM5.94141 126.315L5.7527 126.452C5.77682 126.485 5.80854 126.522 5.82122 126.537L6.00098 126.388L6.18073 126.239C6.15342 126.206 6.14282 126.195 6.13011 126.178L5.94141 126.315ZM6.00098 126.388L6.23008 126.344C6.09721 125.656 6.02535 124.946 6.02533 124.219L5.79199 124.219L5.55866 124.219C5.55869 124.977 5.63361 125.716 5.77187 126.432L6.00098 126.388ZM5.79199 124.219H6.02533V119.127H5.79199H5.55866V124.219H5.79199ZM5.79199 119.127V119.361H17.1729V119.127V118.894H5.79199V119.127Z" fill="#26252A"/>
<rect x="17.1738" y="84.8" width="177.446" height="50.8" fill="#26252A"/>
<rect x="17.1738" y="84.8" width="177.446" height="50.8" stroke="#26252A" stroke-width="0.466667"/>
<path d="M18.2589 107.2V96.0161H22.4985C24.4129 96.0161 25.7072 97.1322 25.7072 98.8063V98.8218C25.7072 99.9766 24.8392 101.1 23.6843 101.263V101.294C25.2965 101.48 26.273 102.565 26.273 104.046V104.061C26.273 106.03 24.8624 107.2 22.483 107.2H18.2589ZM22.1807 97.2484H19.654V100.837H21.7467C23.3976 100.837 24.2966 100.178 24.2966 98.9691V98.9536C24.2966 97.853 23.5293 97.2484 22.1807 97.2484ZM22.142 102.038H19.654V105.968H22.2737C23.9478 105.968 24.8392 105.294 24.8392 104.007V103.991C24.8392 102.697 23.9246 102.038 22.142 102.038ZM30.906 107.355C28.6661 107.355 27.1702 105.735 27.1702 103.17V103.154C27.1702 100.589 28.6739 98.9846 30.8983 98.9846C33.1227 98.9846 34.6341 100.581 34.6341 103.154V103.17C34.6341 105.743 33.1304 107.355 30.906 107.355ZM30.9138 106.162C32.3321 106.162 33.2545 105.061 33.2545 103.17V103.154C33.2545 101.263 32.3244 100.178 30.8983 100.178C29.4954 100.178 28.5498 101.271 28.5498 103.154V103.17C28.5498 105.069 29.4877 106.162 30.9138 106.162ZM35.9188 107.2V99.1396H37.2674V100.287H37.2984C37.7324 99.5349 38.554 98.9846 39.7786 98.9846C41.5457 98.9846 42.5688 100.132 42.5688 101.969V107.2H41.2202V102.209C41.2202 100.899 40.6079 100.178 39.3678 100.178C38.0967 100.178 37.2674 101.085 37.2674 102.457V107.2H35.9188ZM44.9541 97.7755C44.4891 97.7755 44.1093 97.3957 44.1093 96.9307C44.1093 96.4579 44.4891 96.0858 44.9541 96.0858C45.4269 96.0858 45.7989 96.4579 45.7989 96.9307C45.7989 97.3957 45.4269 97.7755 44.9541 97.7755ZM43.1327 109.921C43.0475 109.921 42.9622 109.921 42.877 109.913V108.727H43.0862C43.9621 108.727 44.2798 108.456 44.2798 107.557V99.1396H45.6284V107.541C45.6284 109.177 44.8534 109.921 43.1327 109.921ZM50.7265 107.355C48.4865 107.355 46.9907 105.735 46.9907 103.17V103.154C46.9907 100.589 48.4943 98.9846 50.7187 98.9846C52.9431 98.9846 54.4545 100.581 54.4545 103.154V103.17C54.4545 105.743 52.9509 107.355 50.7265 107.355ZM50.7342 106.162C52.1526 106.162 53.0749 105.061 53.0749 103.17V103.154C53.0749 101.263 52.1448 100.178 50.7187 100.178C49.3159 100.178 48.3703 101.271 48.3703 103.154V103.17C48.3703 105.069 49.3081 106.162 50.7342 106.162ZM58.4907 107.355C56.7236 107.355 55.7005 106.208 55.7005 104.371V99.1396H57.0491V104.131C57.0491 105.441 57.6614 106.162 58.9015 106.162C60.1726 106.162 61.0019 105.255 61.0019 103.883V99.1396H62.3505V107.2H61.0019V106.053H60.9709C60.5369 106.805 59.7153 107.355 58.4907 107.355ZM64.0305 107.2V99.1396H65.3791V100.504H65.4101C65.6814 99.5736 66.3789 98.9846 67.2858 98.9846C67.5183 98.9846 67.7198 99.0233 67.8283 99.0388V100.349C67.7198 100.31 67.433 100.271 67.1075 100.271C66.0612 100.271 65.3791 101 65.3791 102.224V107.2H64.0305ZM67.5319 109.394L68.214 105.604H69.6246L68.493 109.394H67.5319ZM77.1234 107.355C74.806 107.355 73.4109 105.735 73.4109 103.201V103.193C73.4109 100.697 74.837 98.9846 77.0382 98.9846C79.2393 98.9846 80.5802 100.62 80.5802 103.038V103.534H74.775C74.806 105.193 75.7206 106.162 77.1544 106.162C78.1775 106.162 78.8983 105.65 79.1308 104.96L79.1541 104.891H80.4794L80.4639 104.968C80.2004 106.301 78.8828 107.355 77.1234 107.355ZM77.0304 100.178C75.8601 100.178 74.9455 100.976 74.7983 102.48H79.2083C79.0766 100.914 78.2085 100.178 77.0304 100.178ZM81.8649 107.2V99.1396H83.2135V100.287H83.2445C83.6786 99.5349 84.5001 98.9846 85.7247 98.9846C87.4919 98.9846 88.5149 100.132 88.5149 101.969V107.2H87.1663V102.209C87.1663 100.899 86.554 100.178 85.314 100.178C84.0429 100.178 83.2135 101.085 83.2135 102.457V107.2H81.8649ZM98.9513 109.913V105.89H98.9203C98.4397 106.774 97.5097 107.34 96.3548 107.34C94.3242 107.34 92.9368 105.697 92.9368 103.162V103.154C92.9368 100.635 94.3397 99.0001 96.3858 99.0001C97.5252 99.0001 98.4242 99.6124 98.9203 100.504H98.9513V99.1396H100.3V109.913H98.9513ZM96.6494 106.146C98.0212 106.146 98.9513 104.968 98.9513 103.162V103.154C98.9513 101.364 98.0135 100.194 96.6494 100.194C95.2155 100.194 94.3164 101.348 94.3164 103.154V103.162C94.3164 105.007 95.2155 106.146 96.6494 106.146ZM104.716 107.355C102.949 107.355 101.926 106.208 101.926 104.371V99.1396H103.274V104.131C103.274 105.441 103.887 106.162 105.127 106.162C106.398 106.162 107.227 105.255 107.227 103.883V99.1396H108.576V107.2H107.227V106.053H107.196C106.762 106.805 105.94 107.355 104.716 107.355ZM113.596 107.355C111.356 107.355 109.86 105.735 109.86 103.17V103.154C109.86 100.589 111.364 98.9846 113.588 98.9846C115.813 98.9846 117.324 100.581 117.324 103.154V103.17C117.324 105.743 115.821 107.355 113.596 107.355ZM113.604 106.162C115.022 106.162 115.945 105.061 115.945 103.17V103.154C115.945 101.263 115.015 100.178 113.588 100.178C112.186 100.178 111.24 101.271 111.24 103.154V103.17C111.24 105.069 112.178 106.162 113.604 106.162ZM119.369 97.7755C118.903 97.7755 118.524 97.3957 118.524 96.9307C118.524 96.4579 118.903 96.0858 119.369 96.0858C119.841 96.0858 120.213 96.4579 120.213 96.9307C120.213 97.3957 119.841 97.7755 119.369 97.7755ZM118.694 107.2V99.1396H120.043V107.2H118.694ZM124.976 109.913V99.1396H126.325V100.504H126.356C126.86 99.5659 127.759 98.9846 128.914 98.9846C130.975 98.9846 132.339 100.628 132.339 103.17V103.178C132.339 105.72 130.96 107.355 128.937 107.355C127.797 107.355 126.86 106.782 126.356 105.852H126.325V109.913H124.976ZM128.65 106.162C130.076 106.162 130.96 105.015 130.96 103.178V103.17C130.96 101.317 130.076 100.178 128.65 100.178C127.286 100.178 126.317 101.364 126.317 103.17V103.178C126.317 104.976 127.294 106.162 128.65 106.162ZM136.965 107.355C134.725 107.355 133.229 105.735 133.229 103.17V103.154C133.229 100.589 134.732 98.9846 136.957 98.9846C139.181 98.9846 140.693 100.581 140.693 103.154V103.17C140.693 105.743 139.189 107.355 136.965 107.355ZM136.972 106.162C138.391 106.162 139.313 105.061 139.313 103.17V103.154C139.313 101.263 138.383 100.178 136.957 100.178C135.554 100.178 134.608 101.271 134.608 103.154V103.17C134.608 105.069 135.546 106.162 136.972 106.162ZM144.729 107.355C142.962 107.355 141.939 106.208 141.939 104.371V99.1396H143.287V104.131C143.287 105.441 143.899 106.162 145.14 106.162C146.411 106.162 147.24 105.255 147.24 103.883V99.1396H148.589V107.2H147.24V106.053H147.209C146.775 106.805 145.953 107.355 144.729 107.355ZM152.54 107.2L149.571 99.1396H150.989L153.214 105.766H153.245L155.477 99.1396H156.88L153.919 107.2H152.54ZM160.893 107.355C158.653 107.355 157.157 105.735 157.157 103.17V103.154C157.157 100.589 158.661 98.9846 160.885 98.9846C163.109 98.9846 164.621 100.581 164.621 103.154V103.17C164.621 105.743 163.117 107.355 160.893 107.355ZM160.901 106.162C162.319 106.162 163.241 105.061 163.241 103.17V103.154C163.241 101.263 162.311 100.178 160.885 100.178C159.482 100.178 158.537 101.271 158.537 103.154V103.17C158.537 105.069 159.474 106.162 160.901 106.162ZM165.906 107.2V99.1396H167.254V100.287H167.285C167.719 99.5349 168.541 98.9846 169.765 98.9846C171.533 98.9846 172.556 100.132 172.556 101.969V107.2H171.207V102.209C171.207 100.899 170.595 100.178 169.355 100.178C168.083 100.178 167.254 101.085 167.254 102.457V107.2H165.906ZM177.057 107.355C175.158 107.355 174.011 106.386 173.848 104.945L173.84 104.875H175.189L175.204 104.953C175.367 105.759 175.964 106.231 177.065 106.231C178.157 106.231 178.808 105.774 178.808 105.046V105.038C178.808 104.456 178.506 104.131 177.592 103.906L176.313 103.596C174.794 103.232 174.057 102.527 174.057 101.364V101.356C174.057 99.9689 175.274 98.9846 177.018 98.9846C178.785 98.9846 179.909 100.015 180.01 101.364L180.018 101.465H178.731L178.723 101.411C178.615 100.628 178.018 100.108 177.018 100.108C176.041 100.108 175.437 100.581 175.437 101.294V101.302C175.437 101.852 175.801 102.232 176.693 102.449L177.971 102.759C179.599 103.154 180.188 103.798 180.188 104.945V104.953C180.188 106.363 178.855 107.355 177.057 107.355ZM181.558 103.294V102.038H186.518V103.294H181.558ZM18.0496 124.2V116.14H19.3982V117.287H19.4293C19.8633 116.535 20.6848 115.985 21.9094 115.985C23.6766 115.985 24.6997 117.132 24.6997 118.969V124.2H23.3511V119.209C23.3511 117.899 22.7388 117.178 21.4987 117.178C20.2276 117.178 19.3982 118.085 19.3982 119.457V124.2H18.0496ZM29.6814 124.355C27.4415 124.355 25.9456 122.735 25.9456 120.17V120.154C25.9456 117.589 27.4493 115.985 29.6737 115.985C31.8981 115.985 33.4095 117.581 33.4095 120.154V120.17C33.4095 122.743 31.9058 124.355 29.6814 124.355ZM29.6892 123.162C31.1075 123.162 32.0299 122.061 32.0299 120.17V120.154C32.0299 118.263 31.0998 117.178 29.6737 117.178C28.2708 117.178 27.3252 118.271 27.3252 120.154V120.17C27.3252 122.069 28.2631 123.162 29.6892 123.162ZM37.4457 124.355C35.6785 124.355 34.6554 123.208 34.6554 121.371V116.14H36.0041V121.131C36.0041 122.441 36.6163 123.162 37.8564 123.162C39.1275 123.162 39.9569 122.255 39.9569 120.883V116.14H41.3055V124.2H39.9569V123.053H39.9259C39.4918 123.805 38.6703 124.355 37.4457 124.355ZM45.8454 124.355C43.9466 124.355 42.7995 123.386 42.6367 121.945L42.6289 121.875H43.9776L43.9931 121.953C44.1558 122.759 44.7526 123.231 45.8532 123.231C46.946 123.231 47.5971 122.774 47.5971 122.046V122.038C47.5971 121.456 47.2948 121.131 46.3802 120.906L45.1014 120.596C43.5823 120.232 42.846 119.527 42.846 118.364V118.356C42.846 116.969 44.0628 115.985 45.8067 115.985C47.5738 115.985 48.6977 117.015 48.7984 118.364L48.8062 118.465H47.5196L47.5118 118.411C47.4033 117.628 46.8065 117.108 45.8067 117.108C44.8301 117.108 44.2256 117.581 44.2256 118.294V118.302C44.2256 118.852 44.5898 119.232 45.4812 119.449L46.76 119.759C48.3876 120.154 48.9767 120.798 48.9767 121.945V121.953C48.9767 123.363 47.6436 124.355 45.8454 124.355ZM55.747 124.2L52.7785 116.14H54.1969L56.4213 122.766H56.4523L58.6845 116.14H60.0873L57.1266 124.2H55.747ZM64.1003 124.355C61.8603 124.355 60.3645 122.735 60.3645 120.17V120.154C60.3645 117.589 61.8681 115.985 64.0925 115.985C66.3169 115.985 67.8283 117.581 67.8283 120.154V120.17C67.8283 122.743 66.3247 124.355 64.1003 124.355ZM64.108 123.162C65.5264 123.162 66.4487 122.061 66.4487 120.17V120.154C66.4487 118.263 65.5186 117.178 64.0925 117.178C62.6897 117.178 61.7441 118.271 61.7441 120.154V120.17C61.7441 122.069 62.6819 123.162 64.108 123.162ZM71.8645 124.355C70.0974 124.355 69.0743 123.208 69.0743 121.371V116.14H70.4229V121.131C70.4229 122.441 71.0352 123.162 72.2753 123.162C73.5464 123.162 74.3757 122.255 74.3757 120.883V116.14H75.7243V124.2H74.3757V123.053H74.3447C73.9107 123.805 73.0891 124.355 71.8645 124.355ZM80.2643 124.355C78.3654 124.355 77.2183 123.386 77.0555 121.945L77.0478 121.875H78.3964L78.4119 121.953C78.5747 122.759 79.1715 123.231 80.272 123.231C81.3649 123.231 82.0159 122.774 82.0159 122.046V122.038C82.0159 121.456 81.7136 121.131 80.7991 120.906L79.5202 120.596C78.0011 120.232 77.2648 119.527 77.2648 118.364V118.356C77.2648 116.969 78.4816 115.985 80.2255 115.985C81.9927 115.985 83.1165 117.015 83.2173 118.364L83.225 118.465H81.9384L81.9307 118.411C81.8222 117.628 81.2254 117.108 80.2255 117.108C79.249 117.108 78.6444 117.581 78.6444 118.294V118.302C78.6444 118.852 79.0087 119.232 79.9 119.449L81.1789 119.759C82.8065 120.154 83.3955 120.798 83.3955 121.945V121.953C83.3955 123.363 82.0624 124.355 80.2643 124.355ZM90.2511 124.355C88.6467 124.355 87.5694 123.386 87.5694 121.922V121.906C87.5694 120.534 88.639 119.674 90.4913 119.565L92.801 119.434V118.759C92.801 117.775 92.1577 117.178 91.0339 117.178C89.9953 117.178 89.3443 117.674 89.1892 118.395L89.1737 118.465H87.8716L87.8794 118.379C87.9957 117.054 89.1505 115.985 91.0494 115.985C92.956 115.985 94.1496 117.015 94.1496 118.628V124.2H92.801V122.89H92.77C92.2972 123.774 91.3284 124.355 90.2511 124.355ZM88.949 121.922C88.949 122.697 89.5845 123.185 90.5534 123.185C91.8244 123.185 92.801 122.309 92.801 121.139V120.48L90.6464 120.612C89.569 120.674 88.949 121.154 88.949 121.906V121.922ZM96.5427 114.775C96.0777 114.775 95.6979 114.396 95.6979 113.931C95.6979 113.458 96.0777 113.086 96.5427 113.086C97.0155 113.086 97.3875 113.458 97.3875 113.931C97.3875 114.396 97.0155 114.775 96.5427 114.775ZM95.8684 124.2V116.14H97.217V124.2H95.8684ZM102.005 124.355C99.9434 124.355 98.5793 122.712 98.5793 120.17V120.162C98.5793 117.62 99.9589 115.985 101.982 115.985C103.121 115.985 104.059 116.558 104.563 117.488H104.594V113.016H105.942V124.2H104.594V122.836H104.563C104.059 123.774 103.16 124.355 102.005 124.355ZM102.269 123.162C103.633 123.162 104.601 121.976 104.601 120.17V120.162C104.601 118.364 103.625 117.178 102.269 117.178C100.842 117.178 99.9589 118.325 99.9589 120.162V120.17C99.9589 122.022 100.842 123.162 102.269 123.162ZM111.002 124.355C108.684 124.355 107.289 122.735 107.289 120.201V120.193C107.289 117.697 108.715 115.985 110.916 115.985C113.118 115.985 114.458 117.62 114.458 120.038V120.534H108.653C108.684 122.193 109.599 123.162 111.033 123.162C112.056 123.162 112.776 122.65 113.009 121.96L113.032 121.891H114.358L114.342 121.968C114.079 123.301 112.761 124.355 111.002 124.355ZM110.909 117.178C109.738 117.178 108.824 117.976 108.676 119.48H113.087C112.955 117.914 112.087 117.178 110.909 117.178ZM115.743 124.2V116.14H117.092V117.504H117.123C117.394 116.574 118.092 115.985 118.998 115.985C119.231 115.985 119.432 116.023 119.541 116.039V117.349C119.432 117.31 119.146 117.271 118.82 117.271C117.774 117.271 117.092 118 117.092 119.224V124.2H115.743ZM125.722 120.743V120.03C125.722 119.007 126.21 118.31 127.272 117.674C128.171 117.124 128.52 116.636 128.52 115.814V115.806C128.52 114.837 127.768 114.14 126.621 114.14C125.451 114.14 124.73 114.83 124.629 115.861L124.622 115.938H123.296L123.304 115.837C123.428 114.256 124.498 112.931 126.675 112.931C128.621 112.931 129.962 114.132 129.962 115.737V115.744C129.962 116.953 129.334 117.814 128.342 118.411C127.358 118.992 127.078 119.426 127.078 120.24V120.743H125.722ZM126.404 124.278C125.908 124.278 125.521 123.89 125.521 123.394C125.521 122.89 125.908 122.511 126.404 122.511C126.908 122.511 127.288 122.89 127.288 123.394C127.288 123.89 126.908 124.278 126.404 124.278Z" fill="white"/>
<path d="M206 96.1809C206 89.8954 200.905 84.8 194.619 84.8V101.272H206V96.1809Z" fill="#26252A" stroke="#26252A" stroke-width="0.466667"/>
<rect width="11.3808" height="17.8556" transform="matrix(-1 0 0 1 206 101.272)" fill="#26252A" stroke="#26252A" stroke-width="0.466667"/>
<path d="M206 124.219C206 130.505 200.905 135.6 194.619 135.6V119.128H206V124.219Z" fill="#26252A" stroke="#26252A" stroke-width="0.466667"/>
</svg>
