<svg width="18" height="52" viewBox="0 0 18 52" fill="none" xmlns="http://www.w3.org/2000/svg">
<path d="M5.79297 12.1809C5.79297 5.89541 10.8883 0.800049 17.1738 0.800049V0.800049V17.2723H5.79297V12.1809Z" fill="#26252A" stroke="#26252A" stroke-width="0.466667"/>
<rect x="5.79297" y="17.272" width="11.3808" height="17.8551" fill="#26252A" stroke="#26252A" stroke-width="0.466667"/>
<path d="M17.1738 35.1274V51.6001C14.4174 51.6 11.8901 50.6193 9.9209 48.9888C7.95643 50.2977 4.80635 51.5431 1 50.8511C2.04823 50.4018 6.09115 47.7058 5.94141 42.3149C5.96023 42.3408 5.98148 42.3655 6.00195 42.3901C5.86616 41.6873 5.793 40.9617 5.79297 40.2192V35.1274H17.1738Z" fill="#26252A"/>
<path d="M17.1738 35.1274H17.4072V34.8941H17.1738V35.1274ZM17.1738 51.6001L17.1738 51.8334L17.4072 51.8334V51.6001H17.1738ZM9.9209 48.9888L10.0697 48.809L9.93599 48.6983L9.79152 48.7946L9.9209 48.9888ZM1 50.8511L0.908085 50.6366L0.195567 50.942L0.95826 51.0806L1 50.8511ZM5.94141 42.3149L6.13011 42.1777L5.68726 41.5688L5.70816 42.3214L5.94141 42.3149ZM6.00195 42.3901L5.8224 42.5391L6.23105 42.3459L6.00195 42.3901ZM5.79297 40.2192L5.55964 40.2192L5.55964 40.2192L5.79297 40.2192ZM5.79297 35.1274V34.8941H5.55964V35.1274H5.79297ZM17.1738 35.1274H16.9405V51.6001H17.1738H17.4072V35.1274H17.1738ZM17.1738 51.6001L17.1738 51.3668C14.4738 51.3667 11.9987 50.4062 10.0697 48.809L9.9209 48.9888L9.77209 49.1685C11.7816 50.8324 14.3611 51.8333 17.1738 51.8334L17.1738 51.6001ZM9.9209 48.9888L9.79152 48.7946C7.86315 50.0795 4.77371 51.3 1.04174 50.6215L1 50.8511L0.95826 51.0806C4.83899 51.7862 8.04971 50.5159 10.0503 49.1829L9.9209 48.9888ZM1 50.8511L1.09191 51.0655C1.65179 50.8256 2.95545 50.0155 4.10216 48.5819C5.25345 47.1425 6.25131 45.0683 6.17465 42.3085L5.94141 42.3149L5.70816 42.3214C5.78125 44.9525 4.83252 46.9217 3.73773 48.2904C2.63836 49.6648 1.39644 50.4273 0.908085 50.6366L1 50.8511ZM5.94141 42.3149L5.7527 42.4522C5.77726 42.4859 5.80589 42.5193 5.8224 42.5391L6.00195 42.3901L6.18151 42.2411C6.15707 42.2117 6.1432 42.1957 6.13011 42.1777L5.94141 42.3149ZM6.00195 42.3901L6.23105 42.3459C6.09797 41.6571 6.02633 40.9464 6.0263 40.2192L5.79297 40.2192L5.55964 40.2192C5.55966 40.9771 5.63435 41.7175 5.77286 42.4344L6.00195 42.3901ZM5.79297 40.2192H6.0263V35.1274H5.79297H5.55964V40.2192H5.79297ZM5.79297 35.1274V35.3608H17.1738V35.1274V34.8941H5.79297V35.1274Z" fill="#26252A"/>
</svg>
