<svg width="33" height="29" viewBox="0 0 33 29" fill="none" xmlns="http://www.w3.org/2000/svg">
<path d="M0 27.6839V1.51504C0 0.673351 0.633455 0 1.47806 0C2.32267 0 2.95612 0.673351 2.95612 1.51504V14.7984L7.40539 10.2227C8.14442 9.45752 8.80804 9.15145 9.56216 9.15145C10.3163 9.15145 11.0402 9.48813 11.734 10.2227L17.1184 15.8697C17.2541 16.0074 17.3899 16.0839 17.5256 16.0839C17.6463 16.0839 17.7971 16.0074 17.9177 15.8697L23.7847 9.8248L21.4319 7.42216C20.7834 6.76412 21.1755 5.89182 22.0804 5.64697L30.9337 3.35145C31.7633 3.1372 32.5023 3.85646 32.2761 4.69815L30.0137 13.7119C29.7724 14.6301 28.8825 15.0127 28.2491 14.3699L25.8812 11.952L19.6824 18.2723C18.9584 18.9916 18.2646 19.3282 17.5105 19.3282C16.7564 19.3282 16.0324 19.0069 15.3537 18.257L9.96938 12.61C9.83364 12.4723 9.68281 12.4111 9.56216 12.4111C9.4415 12.4111 9.29068 12.4723 9.17002 12.61L2.95612 19.0834V25.572C2.95612 25.8934 3.0617 26.0005 3.37843 26.0005H31.5069C32.3364 26.0005 33 26.6433 33 27.5003C33 28.3573 32.3364 29 31.5069 29H1.29707C0.512797 29 0 28.4797 0 27.6839Z" fill="white"/>
</svg>
