<svg width="18" height="52" viewBox="0 0 18 52" fill="none" xmlns="http://www.w3.org/2000/svg">
<path d="M12.293 12.0081C12.293 5.83628 7.28971 0.833008 1.11787 0.833008V0.833008V17.0075H12.293V12.0081Z" fill="#278EFF" stroke="#278EFF" stroke-width="0.458232"/>
<rect width="11.1751" height="18.1471" transform="matrix(-1 0 0 1 12.293 17.0076)" fill="#278EFF" stroke="#278EFF" stroke-width="0.458232"/>
<path d="M1.11816 35.1545V51.3293C3.82488 51.3293 6.30649 50.366 8.24023 48.7649C10.1691 50.0503 13.2622 51.2735 17 50.594C15.9705 50.1527 12.0004 47.5053 12.1475 42.2122C12.1288 42.2378 12.1082 42.262 12.0879 42.2864C12.2213 41.596 12.2939 40.8829 12.2939 40.1536V35.1545H1.11816Z" fill="#278EFF"/>
<path d="M1.11816 35.1545H0.889048V34.9254H1.11816V35.1545ZM1.11816 51.3293V51.5585H0.889048V51.3293H1.11816ZM8.24023 48.7649L8.09411 48.5884L8.22542 48.4797L8.36729 48.5742L8.24023 48.7649ZM17 50.594L17.0903 50.3834L17.7898 50.6833L17.041 50.8194L17 50.594ZM12.1475 42.2122L11.9622 42.0774L12.397 41.4795L12.3765 42.2185L12.1475 42.2122ZM12.0879 42.2864L12.2641 42.4328L11.8629 42.2429L12.0879 42.2864ZM12.2939 35.1545V34.9254H12.5231V35.1545H12.2939ZM1.11816 35.1545H1.34728V51.3293H1.11816H0.889048V35.1545H1.11816ZM1.11816 51.3293V51.1002C3.76952 51.1002 6.19989 50.1568 8.09411 48.5884L8.24023 48.7649L8.38635 48.9414C6.41309 50.5752 3.88024 51.5585 1.11816 51.5585V51.3293ZM8.24023 48.7649L8.36729 48.5742C10.2607 49.836 13.2942 51.0348 16.959 50.3686L17 50.594L17.041 50.8194C13.2301 51.5122 10.0775 50.2646 8.11318 48.9556L8.24023 48.7649ZM17 50.594L16.9097 50.8046C16.3599 50.5689 15.0797 49.7733 13.9536 48.3656C12.823 46.9523 11.8432 44.9156 11.9184 42.2058L12.1475 42.2122L12.3765 42.2185C12.3047 44.8019 13.2363 46.7354 14.3114 48.0794C15.391 49.429 16.6106 50.1778 17.0903 50.3834L17 50.594ZM12.1475 42.2122L12.3328 42.3469C12.3086 42.3802 12.2815 42.4119 12.2641 42.4328L12.0879 42.2864L11.9117 42.14C11.9349 42.112 11.9491 42.0954 11.9622 42.0774L12.1475 42.2122ZM12.0879 42.2864L11.8629 42.2429C11.9937 41.5662 12.0648 40.8677 12.0648 40.1536H12.2939H12.5231C12.5231 40.8982 12.4489 41.6258 12.3128 42.3298L12.0879 42.2864ZM12.2939 40.1536H12.0648V35.1545H12.2939H12.5231V40.1536H12.2939ZM12.2939 35.1545V35.3837H1.11816V35.1545V34.9254H12.2939V35.1545Z" fill="#278EFF"/>
</svg>
