<svg width="25" height="30" viewBox="0 0 25 30" fill="none" xmlns="http://www.w3.org/2000/svg">
<path d="M1.19674 27.9527C0.53919 27.9527 0 27.4041 0 26.7351C0 26.066 0.53919 25.5174 1.19674 25.5174H9.54761C9.87638 24.7145 10.5076 24.0723 11.2967 23.7377V20.6334H4.40558C1.56497 20.6334 0.0920568 19.1481 0.0920568 16.2979V4.3488C0.0920568 1.49866 1.56497 0 4.40558 0H20.5944C23.435 0 24.9079 1.49866 24.9079 4.3488V16.2979C24.9079 19.1481 23.435 20.6334 20.5944 20.6334H13.6902V23.7377C14.4924 24.0723 15.1236 24.7145 15.4524 25.5174H23.8033C24.4608 25.5174 25 26.066 25 26.7351C25 27.4041 24.4608 27.9527 23.8033 27.9527H15.4655C14.979 29.157 13.8348 30 12.4934 30C11.1652 30 10.0079 29.157 9.53446 27.9527H1.19674ZM4.56339 18.0107H20.4366C21.6465 18.0107 22.3304 17.3684 22.3304 16.0705V4.57627C22.3304 3.27832 21.6465 2.62266 20.4366 2.62266H4.56339C3.3535 2.62266 2.66965 3.27832 2.66965 4.57627V16.0705C2.66965 17.3684 3.3535 18.0107 4.56339 18.0107Z" fill="white"/>
</svg>
