<svg width="33" height="28" viewBox="0 0 33 28" fill="none" xmlns="http://www.w3.org/2000/svg">
<path d="M19.0062 27.9324C17.1232 27.9324 15.3079 27.5403 13.6552 26.8373C15.0234 25.269 15.8633 23.2409 15.8633 21.0372C15.8633 20.3477 15.782 19.6581 15.6195 19.0227C16.649 18.7793 17.7734 18.6306 18.9926 18.6306C22.867 18.6306 25.8473 20.0502 27.2426 21.605C29.1121 19.6041 30.2365 16.9271 30.2365 13.9662C30.2365 7.74698 25.2241 2.75809 18.9926 2.75809C13.3436 2.75809 8.72414 6.85466 7.92488 12.2492C7.04434 12.114 5.9335 12.168 5.10714 12.3573C5.91995 5.44858 11.867 0 18.9926 0C26.6466 0 33 6.32738 33 13.9662C33 21.605 26.6736 27.9324 19.0062 27.9324ZM18.9926 16.4133C16.3781 16.3863 14.3461 14.1825 14.3325 11.3028C14.3054 8.5717 16.3781 6.28682 18.9926 6.28682C21.5936 6.28682 23.6527 8.5717 23.6527 11.3028C23.6527 14.196 21.6071 16.4268 18.9926 16.4133ZM6.96305 28C3.14286 28 0 24.8634 0 21.0372C0 17.2245 3.14286 14.0879 6.96305 14.0879C10.7968 14.0879 13.9397 17.2245 13.9397 21.0372C13.9397 24.8363 10.7562 28 6.96305 28ZM6.05542 24.8093C6.38054 24.8093 6.69212 24.6741 6.85468 24.4578L10.7833 19.0633C10.9052 18.8875 10.9729 18.6712 10.9729 18.5089C10.9729 17.9681 10.5259 17.549 10.0111 17.549C9.67241 17.549 9.38793 17.7113 9.19828 17.9681L6.00123 22.3892L4.4298 20.6721C4.26724 20.4964 4.0234 20.3612 3.71182 20.3612C3.19704 20.3612 2.75 20.7533 2.75 21.3346C2.75 21.5645 2.84483 21.8213 3.02094 22.0241L5.28325 24.4983C5.48645 24.7146 5.79803 24.8093 6.05542 24.8093Z" fill="white"/>
</svg>
