<svg width="19" height="19" viewBox="0 0 19 19" fill="none" xmlns="http://www.w3.org/2000/svg">
<path d="M0.910156 19.0003L2.18806 14.3318C1.3995 12.9653 0.985149 11.4162 0.985906 9.82774C0.988179 4.86157 5.02944 0.820312 9.99486 0.820312C12.4045 0.82107 14.6664 1.75961 16.3677 3.46247C18.0683 5.16533 19.0046 7.42874 19.0038 9.83608C19.0015 14.803 14.9603 18.8443 9.99486 18.8443C8.48743 18.8435 7.00197 18.4655 5.6862 17.7474L0.910156 19.0003ZM5.90739 16.1165C7.17696 16.8702 8.38896 17.3217 9.99183 17.3224C14.1187 17.3224 17.4805 13.9637 17.4827 9.83456C17.4843 5.6971 14.1384 2.34289 9.99789 2.34137C5.868 2.34137 2.50848 5.70013 2.50697 9.8285C2.50621 11.5139 3.0001 12.7759 3.82956 14.0963L3.07282 16.8596L5.90739 16.1165ZM14.533 11.9775C14.477 11.8836 14.327 11.8275 14.1013 11.7147C13.8763 11.6018 12.7696 11.0572 12.5628 10.9822C12.3567 10.9072 12.2068 10.8693 12.056 11.095C11.906 11.32 11.4743 11.8275 11.3432 11.9775C11.2122 12.1275 11.0804 12.1465 10.8554 12.0336C10.6304 11.9207 9.90471 11.6836 9.04495 10.9163C8.37608 10.3194 7.92385 9.58231 7.7928 9.35658C7.66176 9.1316 7.77917 9.00965 7.89128 8.89754C7.99278 8.79679 8.11626 8.63468 8.22912 8.50288C8.34351 8.37259 8.38062 8.27866 8.45637 8.12792C8.53137 7.97793 8.49425 7.84613 8.43744 7.73326C8.38062 7.62115 7.93067 6.51293 7.74357 6.06221C7.56025 5.62362 7.37466 5.6827 7.2368 5.67589L6.80502 5.66831C6.65504 5.66831 6.41112 5.72437 6.20508 5.9501C5.99904 6.17584 5.41728 6.71972 5.41728 7.82795C5.41728 8.93617 6.22402 10.0065 6.33613 10.1565C6.449 10.3065 7.92309 12.5805 10.1812 13.5554C10.7183 13.7872 11.1379 13.9258 11.4644 14.0296C12.0037 14.2008 12.4946 14.1766 12.8824 14.119C13.315 14.0546 14.2141 13.5743 14.402 13.0486C14.5899 12.5222 14.5899 12.0715 14.533 11.9775Z" fill="white"/>
</svg>
