<svg xmlns="http://www.w3.org/2000/svg" width="39" height="20" fill="none"><path fill="#fff" d="M39 9.914c0 4.138-1.72 7.18-6.063 9.323-1.416.665-3.944.652-10.253.652h-1.99c-.117 0-.176-.061-.176-.172v-3.904h8.755c2.763 0 4.624-1.343 5.583-3.99.235-.604.363-1.293.363-2.094 0-2.217-1.135-3.99-3.453-5.283a6.1 6.1 0 0 0-2.34-.456h-7.011c-.656.628-1.276 1.207-1.885 1.798a1157 1157 0 0 1-6.25 5.973c-5.501 5.246-8.393 7.98-8.72 8.214L.14 20C.06 20 0 19.938 0 19.852l6.707-6.662c.796-.727 3.312-3.128 7.561-7.168.656-.628 1.37-1.318 2.119-2.032 1.275-1.207 2.657-2.55 4.19-3.99h8.591c4.506 0 7.643 2.278 9.305 6.835.234.48.433 1.478.515 3.066z"/></svg>