<svg width="1266" height="188" viewBox="0 0 1266 188" fill="none" xmlns="http://www.w3.org/2000/svg">
<g clip-path="url(#clip0_241_842)">
<path d="M599.323 131.913C609.871 131.246 618.416 129.51 624.958 127.107C656.199 113.088 671.954 92.7943 671.954 66.0919C671.553 58.2147 670.619 52.3402 669.15 49.2694C657.935 17.093 634.17 0.937988 598.255 0.937988H475.157C474.222 0.937988 473.421 1.73906 473.154 3.07418V215.492C473.154 216.961 473.822 217.628 475.157 217.628H514.677C515.611 217.628 516.279 216.961 516.279 215.492V131.913H534.169L624.958 217.628H685.973V216.56L599.323 131.913ZM516.679 88.789V44.5965L601.994 44.1959C619.083 45.531 627.761 52.7407 627.761 66.0919C627.761 79.4431 619.484 87.3203 603.062 88.789H516.679Z" fill="white"/>
<path d="M755.674 0.937988C757.009 1.33852 757.677 2.00609 757.677 2.94067V213.756C757.677 215.091 757.009 215.492 755.674 215.492H716.288C714.953 215.492 714.285 215.091 714.285 213.756V3.07418C714.686 1.73906 715.353 1.0715 716.288 1.0715H755.674V0.937988Z" fill="white"/>
<path d="M1198.92 2.13619V41.9228C1198.92 42.9909 1198.26 43.6585 1196.92 43.6585H1010.67C888.108 155.141 824.156 212.818 819.082 216.557H787.574C786.505 216.557 785.838 215.889 785.838 214.821V2.00268C785.838 0.667561 786.505 0 787.574 0H830.03C831.365 0.267024 832.033 0.934585 832.033 2.00268V142.858C845.117 131.509 897.855 83.9791 990.378 0H1057.54L1196.92 0.133512C1198.26 0.400536 1198.92 1.0681 1198.92 2.13619Z" fill="white"/>
<path d="M1196.93 173.024L1017.09 172.624V214.813C1017.09 215.881 1017.76 216.549 1019.09 216.549H1196.93C1198.27 216.549 1198.93 215.881 1198.93 214.813V175.027C1198.93 174.092 1198.27 173.291 1196.93 173.024ZM1196.93 86.6417H1019.09C1018.02 86.5082 1017.36 87.1757 1017.09 88.6444V130.434H1196.93C1198.27 130.3 1198.93 129.633 1198.93 128.565V88.7779C1198.93 87.7098 1198.27 87.0422 1196.93 86.6417Z" fill="white"/>
<path d="M444.989 108.288C444.989 153.148 425.363 186.126 375.83 209.357C359.675 216.567 330.836 216.433 258.873 216.433H236.176C234.841 216.433 234.174 215.766 234.174 214.564V172.241H334.041C365.55 172.241 386.778 157.688 397.726 128.983C400.396 122.441 401.865 114.964 401.865 106.286C401.865 82.2534 388.914 63.0277 362.479 49.0089C353.934 45.6711 344.989 44.069 335.776 44.069H255.803C248.326 50.8781 241.25 57.1532 234.307 63.5617C207.338 88.2615 183.573 109.757 163.012 128.315C100.261 185.191 67.2836 214.831 63.5452 217.368L1.7291 217.635C0.794514 217.635 0.126953 216.967 0.126953 216.033L76.6294 143.803C85.7082 135.925 114.413 109.89 162.878 66.0985C170.355 59.2893 178.499 51.8127 187.044 44.069C201.597 30.9848 217.351 16.432 234.841 0.811035H332.839C384.241 0.811035 420.023 25.5108 438.981 74.9103C441.652 80.1172 443.921 90.9317 444.856 108.155L444.989 108.288Z" fill="white"/>
</g>
<defs>
<clipPath id="clip0_241_842">
<rect width="1352.48" height="217.625" fill="white"/>
</clipPath>
</defs>
</svg>
