<svg width="28" height="29" viewBox="0 0 28 29" fill="none" xmlns="http://www.w3.org/2000/svg">
<path d="M27.5403 15.2716C27.5403 22.7499 21.4779 28.8123 13.9996 28.8123C6.52133 28.8123 0.458984 22.7499 0.458984 15.2716C0.458984 7.79331 6.52133 1.73096 13.9996 1.73096C21.4779 1.73096 27.5403 7.79331 27.5403 15.2716ZM2.23828 15.2716C2.23828 21.7672 7.50401 27.033 13.9996 27.033C20.4952 27.033 25.761 21.7672 25.761 15.2716C25.761 8.77599 20.4952 3.51026 13.9996 3.51026C7.50401 3.51026 2.23828 8.77599 2.23828 15.2716Z" fill="white"/>
<ellipse cx="14.0205" cy="15.2505" rx="5.70017" ry="5.70017" fill="white"/>
<ellipse cx="13.9961" cy="2.83201" rx="2.83201" ry="2.83201" fill="white"/>
</svg>
