<svg width="20" height="26" viewBox="0 0 20 26" fill="none" xmlns="http://www.w3.org/2000/svg">
<path d="M3.3714 24.1735C1.13105 24.1735 0 22.9896 0 20.6331V3.54033C0 1.18387 1.13105 0 3.3714 0H14.9212C17.1724 0 18.2926 1.17259 18.2926 3.54033V15.7398C17.8358 15.0295 17.2376 14.4319 16.5416 13.9809V3.56288C16.5416 2.44666 15.9217 1.81526 14.8341 1.81526H3.4584C2.32735 1.81526 1.75095 2.45794 1.75095 3.56288V20.6106C1.75095 21.7268 2.32735 22.3582 3.4584 22.3582H8.50462C8.93964 23.0798 9.51604 23.6999 10.2121 24.1735H3.3714ZM5.02447 6.41544C4.63295 6.41544 4.35019 6.09974 4.35019 5.70512C4.35019 5.32177 4.63295 5.02862 5.02447 5.02862H13.279C13.6596 5.02862 13.9424 5.32177 13.9424 5.70512C13.9424 6.09974 13.6596 6.41544 13.279 6.41544H5.02447ZM5.02447 10.3391C4.63295 10.3391 4.35019 10.0347 4.35019 9.64007C4.35019 9.25672 4.63295 8.9523 5.02447 8.9523H13.279C13.6596 8.9523 13.9424 9.25672 13.9424 9.64007C13.9424 10.0347 13.6596 10.3391 13.279 10.3391H5.02447ZM13.3877 23.6097C10.9734 23.6097 8.99402 21.5577 8.99402 19.0546C8.99402 16.5629 10.9734 14.4996 13.3877 14.4996C15.7912 14.4996 17.7705 16.5629 17.7705 19.0546C17.7705 19.9792 17.4878 20.8586 17.0201 21.5802L19.7064 24.3764C19.8804 24.5568 20 24.7936 20 25.0416C20 25.6054 19.6302 26 19.13 26C18.8254 26 18.5971 25.8873 18.3796 25.6505L15.7042 22.9107C15.0299 23.3504 14.236 23.6097 13.3877 23.6097ZM13.3877 22.0876C14.9864 22.0876 16.3132 20.7121 16.3132 19.0434C16.3132 17.3972 14.9864 16.0217 13.3877 16.0217C11.789 16.0217 10.4622 17.3972 10.4622 19.0434C10.4622 20.7121 11.789 22.0876 13.3877 22.0876Z" fill="white"/>
</svg>
