<svg width="25" height="25" viewBox="0 0 25 25" fill="none" xmlns="http://www.w3.org/2000/svg">
<path d="M1.02145 8.12468C0.370276 8.12468 0 7.74144 0 7.07716V3.94737C0 1.31579 1.34065 0 4.00919 0H7.12462C7.80133 0 8.1716 0.35769 8.1716 1.02197C8.1716 1.68625 7.80133 2.05672 7.12462 2.05672H4.03473C2.75792 2.05672 2.05567 2.73378 2.05567 4.06234V7.07716C2.05567 7.74144 1.69816 8.12468 1.02145 8.12468ZM23.9658 8.12468C23.3146 8.12468 22.9443 7.74144 22.9443 7.07716V4.06234C22.9443 2.73378 22.2165 2.05672 20.9525 2.05672H17.8626C17.1987 2.05672 16.8284 1.68625 16.8284 1.02197C16.8284 0.35769 17.1987 0 17.8626 0H20.9908C23.6593 0 25 1.31579 25 3.94737V7.07716C25 7.74144 24.6425 8.12468 23.9658 8.12468ZM6.80541 18.2678C5.45199 18.2678 4.77528 17.6035 4.77528 16.2749V9.52989C4.77528 8.17578 5.45199 7.5115 6.80541 7.5115H8.4142C8.91216 7.5115 9.06537 7.4093 9.35904 7.08993L9.88253 6.51507C10.2017 6.15738 10.5337 5.97854 11.1977 5.97854H13.7768C14.428 5.97854 14.76 6.15738 15.0792 6.51507L15.6027 7.08993C15.8963 7.42207 16.0495 7.5115 16.5475 7.5115H18.2074C19.548 7.5115 20.2375 8.17578 20.2375 9.52989V16.2749C20.2375 17.6035 19.548 18.2678 18.2074 18.2678H6.80541ZM12.5255 16.6709C14.6323 16.6709 16.3304 15.0102 16.3304 12.8258C16.3304 10.7052 14.6323 9.00613 12.5255 9.00613C10.3933 9.00613 8.68233 10.7052 8.68233 12.8258C8.68233 14.9719 10.3933 16.6709 12.5255 16.6709ZM17.8498 10.8074C18.335 10.8074 18.7181 10.4113 18.7181 9.93868C18.7181 9.46602 18.335 9.08278 17.8498 9.08278C17.3774 9.08278 16.9944 9.46602 16.9944 9.93868C16.9944 10.4113 17.3774 10.8074 17.8498 10.8074ZM12.5128 15.5595C11.0061 15.5595 9.78039 14.3587 9.78039 12.8258C9.78039 11.3183 11.0061 10.1048 12.5128 10.1048C14.0066 10.1048 15.2324 11.3183 15.2324 12.8258C15.2324 14.3587 14.0066 15.5595 12.5128 15.5595ZM4.00919 25C1.34065 25 0 23.6842 0 21.0399V17.9228C0 17.2458 0.357508 16.8753 1.02145 16.8753C1.68539 16.8753 2.05567 17.2458 2.05567 17.9228V20.9377C2.05567 22.2662 2.75792 22.9433 4.03473 22.9433H7.12462C7.80133 22.9433 8.1716 23.3137 8.1716 23.978C8.1716 24.6295 7.80133 25 7.12462 25H4.00919ZM17.8626 25C17.1987 25 16.8284 24.6295 16.8284 23.978C16.8284 23.3137 17.1987 22.9433 17.8626 22.9433H20.9525C22.2165 22.9433 22.9443 22.2662 22.9443 20.9377V17.9228C22.9443 17.2458 23.3018 16.8753 23.9658 16.8753C24.6297 16.8753 25 17.2458 25 17.9228V21.0399C25 23.6714 23.6593 25 20.9908 25H17.8626Z" fill="white"/>
</svg>
