<svg width="28" height="20" viewBox="0 0 28 20" fill="none" xmlns="http://www.w3.org/2000/svg">
<path d="M3.46961 18.9043C1.17127 18.9043 0 17.7642 0 15.4842V3.4311C0 1.15108 1.17127 0 3.46961 0H22.4972C24.8177 0 25.9669 1.15108 25.9669 3.4311V10.6253C25.6906 10.57 25.3923 10.5479 25.0939 10.5479C24.7845 10.5479 24.4862 10.5811 24.1878 10.6364V6.91754H1.77901V15.3846C1.77901 16.5357 2.39779 17.1223 3.50276 17.1223H12.453V18.9043H3.46961ZM1.77901 3.53071V4.40509H24.1878V3.53071C24.1878 2.37963 23.5691 1.78196 22.4751 1.78196H3.50276C2.39779 1.78196 1.77901 2.37963 1.77901 3.53071ZM17.0718 19.8893C16.6519 19.8893 16.3646 19.6126 16.3646 19.2142C16.3646 18.9596 16.4641 18.7493 16.7182 18.5058L19.0608 16.1704C20 15.2407 20.221 14.8976 20.221 14.3996C20.221 13.8462 19.6796 13.3702 19.0166 13.3702C18.453 13.3702 18 13.6359 17.779 14.1007C17.7459 14.1782 17.7238 14.2557 17.7017 14.3442C17.6022 14.7205 17.3923 14.8866 17.0497 14.8866C16.674 14.8866 16.3978 14.6209 16.3978 14.2225C16.3978 14.0343 16.442 13.8683 16.4972 13.7023C16.8287 12.7283 17.8343 12.0531 19.0166 12.0531C20.5304 12.0531 21.6575 13.0382 21.6575 14.3442C21.6575 15.1854 21.2707 15.8495 20.0442 17.0559L18.5967 18.4947V18.5501H21.2265C21.6133 18.5501 21.9006 18.8379 21.9006 19.2363C21.9006 19.6126 21.6133 19.8893 21.2265 19.8893H17.0718ZM25.105 20C23.8785 20 22.9392 19.5019 22.4751 18.6386C22.3646 18.4394 22.3094 18.207 22.3094 17.9967C22.3094 17.5982 22.5967 17.3215 22.9945 17.3215C23.326 17.3215 23.547 17.4765 23.6464 17.8085C23.8232 18.3509 24.3536 18.6718 25.116 18.6718C25.9669 18.6718 26.5304 18.2512 26.5304 17.6204C26.5304 16.9341 26 16.5578 25.0276 16.5578H24.4641C24.0884 16.5578 23.8232 16.2922 23.8232 15.927C23.8232 15.5617 24.0884 15.285 24.4641 15.285H25.0166C25.779 15.285 26.2652 14.9087 26.2652 14.311C26.2652 13.7355 25.8122 13.3702 25.0608 13.3702C24.3978 13.3702 23.9558 13.6801 23.768 14.2335C23.6685 14.5656 23.4696 14.7205 23.1271 14.7205C22.7403 14.7205 22.4751 14.4549 22.4751 14.0675C22.4751 13.8462 22.5304 13.6137 22.6298 13.4034C23.0166 12.5733 23.9558 12.0531 25.0939 12.0531C26.5967 12.0531 27.6906 12.9496 27.6906 14.1893C27.6906 14.8866 27.3812 15.451 26.8287 15.7941C27.5359 16.093 28 16.7792 28 17.6204C28 18.9928 26.7735 20 25.105 20ZM14.663 19.9889C14.2541 19.9889 13.9669 19.7012 13.9669 19.2695V13.9126H13.9006L12.9171 14.5324C12.7735 14.632 12.6409 14.6763 12.4972 14.6763C12.1326 14.6763 11.8564 14.4217 11.8564 14.0675C11.8564 13.8129 11.9779 13.6027 12.2431 13.4366L13.9116 12.352C14.1878 12.1638 14.3646 12.0974 14.6077 12.0974C15.0829 12.0974 15.3923 12.4073 15.3923 12.8611V19.2695C15.3923 19.7012 15.105 19.9889 14.663 19.9889Z" fill="white"/>
</svg>
