<svg width="21" height="27" viewBox="0 0 21 27" fill="none" xmlns="http://www.w3.org/2000/svg">
<path d="M0 23.0583V3.95429C0 1.33489 1.28597 0 3.87039 0H17.1296C19.714 0 21 1.33489 21 3.95429V23.0583C21 25.6903 19.714 27 17.1296 27H3.87039C1.28597 27 0 25.6903 0 23.0583ZM7.6409 12.9459H8.63971C8.7396 12.9459 8.80202 12.9837 8.87693 13.0592L9.60107 13.7645C10.1629 14.3563 10.7122 14.3438 11.2741 13.7645L11.9982 13.0592C12.0731 12.9963 12.1231 12.9459 12.2229 12.9459H13.2093C14.0208 12.9459 14.4078 12.5681 14.4078 11.7621V10.7547C14.4078 10.6539 14.4203 10.5784 14.5077 10.5154L15.2069 9.78498C15.7937 9.21828 15.7937 8.66418 15.2069 8.08489L14.5077 7.36707C14.4203 7.3041 14.4078 7.22854 14.4078 7.14039V6.13293C14.4078 5.31437 14.0333 4.93657 13.2093 4.93657H12.2229C12.1231 4.93657 12.0731 4.8736 11.9982 4.82323L11.2741 4.1306C10.7122 3.52612 10.1629 3.53871 9.60107 4.1306L8.87693 4.82323C8.81451 4.89879 8.7396 4.93657 8.63971 4.93657H7.6409C6.82937 4.93657 6.44233 5.30177 6.44233 6.13293V7.14039C6.44233 7.22854 6.42985 7.3041 6.35493 7.36707L5.64328 8.08489C5.06897 8.66418 5.06897 9.21828 5.64328 9.78498L6.35493 10.5154C6.42985 10.5784 6.44233 10.6539 6.44233 10.7547V11.7621C6.44233 12.5681 6.82937 12.9459 7.6409 12.9459ZM9.9132 11.3717C9.71344 11.3717 9.55113 11.2836 9.37634 11.0695L8.22771 9.64646C8.12782 9.54571 8.0654 9.39459 8.0654 9.25606C8.0654 8.95382 8.29013 8.68937 8.62723 8.68937C8.80202 8.68937 8.93936 8.79011 9.10167 8.96642L9.88823 9.97388L11.736 7.01446C11.8359 6.83815 11.9982 6.71222 12.198 6.71222C12.4851 6.71222 12.7473 6.91371 12.7473 7.22854C12.7473 7.37966 12.6724 7.53078 12.61 7.63153L10.4501 11.0569C10.3252 11.2836 10.1254 11.3717 9.9132 11.3717ZM5.59334 17.681H15.4316C15.8936 17.681 16.2307 17.3158 16.2307 16.8624C16.2307 16.4216 15.8936 16.0816 15.4316 16.0816H5.59334C5.13139 16.0816 4.78181 16.4216 4.78181 16.8624C4.78181 17.3158 5.13139 17.681 5.59334 17.681ZM5.59334 21.5849H10.2378C10.7122 21.5849 11.0369 21.2449 11.0369 20.8041C11.0369 20.3382 10.7122 19.9729 10.2378 19.9729H5.59334C5.13139 19.9729 4.78181 20.3382 4.78181 20.8041C4.78181 21.2449 5.13139 21.5849 5.59334 21.5849Z" fill="white"/>
</svg>
